# xmcd
#
# Track frame offsets: 
#        150
#        16407
#        33927
#        52389
#        73113
#        93386
#        106739
#        125052
#        141973
#        159987
#        173202
#        187757
#        205408
#
# Disc length: 3003 seconds
#
# Revision: 0
# Processed by: cddbd v1.5.2PL0 Copyright (c) Steve Scherf et al.
# Submitted via: ExactAudioCopy v0.99pb3
#
DISCID=b60bb90d
DTITLE=Chris Priestley - Uncovered
DYEAR=2005
DGENRE=Folk
TTITLE0=A Song For You
TTITLE1=The Faces of Love
TTITLE2=Eyes Are Blue
TTITLE3=Castle Gates
TTITLE4=Denim Blues
TTITLE5=Wingless Angel
TTITLE6=Chelsea Style (London Blues)
TTITLE7=I've Got The Blues Today
TTITLE8=Depend Upon
TTITLE9=Go Go Go
TTITLE10=Hillside in the Rain
TTITLE11=A Farewell/Where Fairburn Walked
TTITLE12=It's Only Love
EXTD=
EXTT0=
EXTT1=
EXTT2=
EXTT3=
EXTT4=
EXTT5=
EXTT6=
EXTT7=
EXTT8=
EXTT9=
EXTT10=
EXTT11=
EXTT12=
PLAYORDER=
